<svg width="15" height="15" viewBox="0 0 15 15" fill="none" xmlns="http://www.w3.org/2000/svg">
<path fill-rule="evenodd" clip-rule="evenodd" d="M12.5 13.3333C12.9602 13.3333 13.3333 12.9602 13.3333 12.5V2.5C13.3333 2.03976 12.9602 1.66667 12.5 1.66667H10.8333V13.3333H12.5ZM12.5 15C13.8807 15 15 13.8807 15 12.5V2.5C15 1.11929 13.8807 3.57628e-07 12.5 3.57628e-07H2.5C1.11929 3.57628e-07 3.57628e-07 1.11929 3.57628e-07 2.5V12.5C3.57628e-07 13.8807 1.11929 15 2.5 15H12.5ZM9.16667 13.3333V1.66667H2.5C2.03976 1.66667 1.66667 2.03976 1.66667 2.5V12.5C1.66667 12.9602 2.03976 13.3333 2.5 13.3333H9.16667ZM4.41074 9.75592C4.08531 9.43049 4.08531 8.90285 4.41074 8.57741L5.48816 7.5L4.41074 6.42259C4.08531 6.09715 4.08531 5.56951 4.41074 5.24408C4.73618 4.91864 5.26382 4.91864 5.58926 5.24408L7.25592 6.91074C7.58136 7.23618 7.58136 7.76382 7.25592 8.08926L5.58926 9.75592C5.26382 10.0814 4.73618 10.0814 4.41074 9.75592Z" fill="#A6A7AB"/>
</svg>
