<svg width="16" height="16" viewBox="0 0 16 16" fill="none" xmlns="http://www.w3.org/2000/svg">
<path fill-rule="evenodd" clip-rule="evenodd" d="M3 2.16667C2.53976 2.16667 2.16667 2.53976 2.16667 3V13C2.16667 13.4602 2.53976 13.8333 3 13.8333H4.66667V2.16667H3ZM3 0.5C1.61929 0.5 0.5 1.61929 0.5 3V13C0.5 14.3807 1.61929 15.5 3 15.5H13C14.3807 15.5 15.5 14.3807 15.5 13V3C15.5 1.61929 14.3807 0.5 13 0.5H3ZM6.33333 2.16667V13.8333H13C13.4602 13.8333 13.8333 13.4602 13.8333 13V3C13.8333 2.53976 13.4602 2.16667 13 2.16667H6.33333ZM11.0893 5.74408C11.4147 6.06951 11.4147 6.59715 11.0893 6.92259L10.0118 8L11.0893 9.07741C11.4147 9.40285 11.4147 9.93049 11.0893 10.2559C10.7638 10.5814 10.2362 10.5814 9.91074 10.2559L8.24408 8.58926C7.91864 8.26382 7.91864 7.73618 8.24408 7.41074L9.91074 5.74408C10.2362 5.41864 10.7638 5.41864 11.0893 5.74408Z" fill="#A6A7AB"/>
</svg>
